<svg width="67" height="67" viewBox="0 0 67 67" fill="none" xmlns="http://www.w3.org/2000/svg">
<path d="M21.4721 61H46.5279C62.1057 61 68.44 50.2571 60.6981 37.1371L57.2259 31.2857C56.3813 29.8686 54.8329 29 53.1438 29L14.8562 29C13.1671 29 11.6187 29.8686 10.7741 31.2857L7.30194 37.1371C-0.440023 50.2571 5.89431 61 21.4721 61Z" fill="#014327"/>
<path opacity="0.4" d="M18.3826 24L48.6378 24C50.4728 24 51.6021 22.0062 50.661 20.4397L47.6496 15.218C39.8859 1.594 27.0874 1.594 19.3237 15.218L16.3123 20.4397C15.4183 22.0062 16.5475 24 18.3826 24Z" fill="#014327"/>
</svg>
